<?xml version="1.0" encoding="UTF-8" standalone="no"?>
<svg width="466px" height="147px" viewBox="0 0 466 147" version="1.1" xmlns="http://www.w3.org/2000/svg" xmlns:xlink="http://www.w3.org/1999/xlink" xmlns:sketch="http://www.bohemiancoding.com/sketch/ns">
    <!-- Generator: Sketch 3.4.2 (15857) - http://www.bohemiancoding.com/sketch -->
    <title>logos-browsers</title>
    <desc>Created with Sketch.</desc>
    <defs>
        <path d="M60.2152974,137.889698 C26.239417,133.468981 0,104.416766 0,69.2360071 C0,55.3523911 4.08647609,42.4232226 11.1222377,31.5856923 L40.223887,81.9912165 C45.1316494,93.1379514 56.274998,100.920282 69.2360071,100.920282 C74.3746339,100.920282 79.2275481,99.6970007 83.5194264,97.5257625 L60.2152974,137.889698 Z M65.360781,138.365392 C66.6435263,138.436162 67.9355798,138.472014 69.2360071,138.472014 C107.473998,138.472014 138.472014,107.473998 138.472014,69.2360071 C138.472014,59.660915 136.528312,50.5397989 133.013947,42.2456977 L85.8401606,42.2456993 C94.8887999,47.8241912 100.920282,57.8257352 100.920282,69.2360071 C100.920282,76.980766 98.1415422,84.0765155 93.5266594,89.5806595 L65.360781,138.365392 Z M14.0993093,27.3541922 C26.7456377,10.7311521 46.737625,0 69.2360071,0 C96.0562134,0 119.314607,15.2499353 130.813113,37.5517327 L68.0625155,37.5517327 L68.0625155,37.5730613 C51.5126965,38.175628 38.2016925,51.4713771 37.5748274,68.0149775 L14.0993122,27.3541924 Z M69.2360071,93.8793317 C82.8461395,93.8793317 93.8793317,82.8461395 93.8793317,69.2360071 C93.8793317,55.6258748 82.8461395,44.5926825 69.2360071,44.5926825 C55.6258748,44.5926825 44.5926825,55.6258748 44.5926825,69.2360071 C44.5926825,82.8461395 55.6258748,93.8793317 69.2360071,93.8793317 Z" id="path-1"></path>
    </defs>
    <g id="Page-1" stroke="none" stroke-width="1" fill="none" fill-rule="evenodd" sketch:type="MSPage">
        <g id="v1" sketch:type="MSArtboardGroup" transform="translate(-401.000000, -1622.000000)">
            <g id="0:0:0:0-copy-+-Gliffy-Works-Directl-+-Group" sketch:type="MSLayerGroup" transform="translate(172.000000, 1548.000000)">
                <g id="logos-browsers" transform="translate(229.000000, 74.000000)">
                    <g id="ie" transform="translate(319.000000, 0.000000)" sketch:type="MSShapeGroup">
                        <g id="img">
                            <path d="M16.1529977,93.0831243 C23.2447386,122.075761 49.3080473,143.583289 80.3751368,143.583289 C108.605882,143.583289 132.704803,125.823654 142.191136,100.826141 L102.554987,100.82614 C97.9039657,110.24309 89.2108689,116.578774 79.2543326,116.578774 C64.3982581,116.578774 52.3550302,102.473385 52.3550302,85.0735065 L124.086503,85.0735065 L146.042026,85.0735065 C146.346163,82.4905782 146.502589,79.862223 146.502589,77.1971897 C146.502589,40.5331597 116.89632,10.8110909 80.3751368,10.8110909 C44.476169,10.8110909 15.2585026,39.5290308 14.2733537,75.3294004 C25.0441429,62.8567027 38.905379,51.317863 38.905379,51.317863 L16.1529999,93.0831333 Z M53.4689636,64.8201204 C56.7758455,51.8062444 67.0688693,42.3163581 79.2543326,42.3163581 C91.4397959,42.3163581 101.73282,51.8062444 105.039701,64.8201204 L53.4689636,64.8201204 Z" id="Oval-1" fill="#0098D7"></path>
                            <path d="M42.2789837,135.210693 C26.1772933,142.195932 12.8306616,143.076013 5.95684136,136.202193 C-8.0096956,122.235656 10.0349256,81.5468043 46.2606308,45.321099 C82.486336,9.09539382 123.175188,-8.94922737 137.141725,5.01730959 C145.297492,13.1730772 142.537509,30.4411089 131.615705,50.6115632 C139.142709,34.5353682 142.118051,20.793551 136.160688,14.8288842 C121.794549,0.445133299 86.443554,20.9435835 53.4660134,53.9211241 C20.4884728,86.8986647 -0.747221335,121.324255 13.0538324,135.125302 C18.013735,140.085202 29.2826556,139.550202 42.2789837,135.210693 Z" id="Path-2" fill="#FFCD00"></path>
                        </g>
                    </g>
                    <g id="Oval-19-+-safari" transform="translate(214.000000, 7.000000)" sketch:type="MSShapeGroup">
                        <circle id="Oval-19" fill="#E7E7E7" cx="70" cy="70" r="70"></circle>
                        <g id="safari" transform="translate(13.000000, 13.000000)">
                            <g id="img">
                                <ellipse id="Oval-1" fill="#00AFDA" cx="56.8872681" cy="56.0714142" rx="56.8872681" ry="56.0714142"></ellipse>
                                <path d="M46.4844432,36.4221527 C48.3128916,35.5283705 50.2845398,34.8822873 52.3556834,34.5276073 L56.0714142,15.2058072 L59.787145,34.5276073 C68.8816824,36.0850322 76.0577962,43.261146 77.6152211,52.3556834 L96.9370212,56.0714142 L77.6152211,59.787145 C76.0577962,68.8816824 68.8816824,76.0577962 59.787145,77.6152211 L56.0714142,96.9370212 L52.3556834,77.6152211 C43.261146,76.0577962 36.0850322,68.8816824 34.5276073,59.787145 L15.2058072,56.0714142 L34.5276073,52.3556834 C34.8905583,50.2362415 35.5586618,48.2209896 36.4850843,46.3567611 L40.4042409,52.110871 C40.0848798,53.3781578 39.915244,54.7049757 39.915244,56.0714142 C39.915244,64.9942206 47.1486078,72.2275844 56.0714142,72.2275844 C64.9942206,72.2275844 72.2275844,64.9942206 72.2275844,56.0714142 C72.2275844,47.1486078 64.9942206,39.915244 56.0714142,39.915244 C54.7397376,39.915244 53.4456914,40.0763586 52.2077048,40.3801585 L46.4844432,36.4221527 Z" id="Oval-2" fill="#FFFFFF"></path>
                                <path d="M19.8656593,19.8220391 L62.2021689,50.0624031 L50.1060233,62.1585487 L19.8656593,19.8220391 L19.8656593,19.8220391 Z" id="Triangle-5" fill="#F13E2D"></path>
                                <path d="M92.2678883,92.2242681 L49.9313787,61.9839041 L62.0275243,49.8877585 L92.2678883,92.2242681 L92.2678883,92.2242681 Z" id="Triangle-6" fill="#F8D9D9"></path>
                                <ellipse id="Oval-4" fill="#FFFFFF" cx="56.0714142" cy="56.0714142" rx="8.55326658" ry="8.55326658"></ellipse>
                            </g>
                        </g>
                    </g>
                    <g id="Oval-18-+-firefox" transform="translate(106.000000, 7.000000)" sketch:type="MSShapeGroup">
                        <circle id="Oval-18" fill="#3563AF" cx="72" cy="70" r="68"></circle>
                        <g id="firefox" fill="#D9621A">
                            <g id="img">
                                <path d="M70.2434093,138.472014 C109.037773,138.472014 140.486819,107.473998 140.486819,69.2360071 C140.486819,30.9980162 109.037773,0 70.2434093,0 C31.4490456,0 0,30.9980162 0,69.2360071 C0,107.473998 31.4490456,138.472014 70.2434093,138.472014 Z M72.2315028,126.081593 C108.525189,126.081593 128.57985,104.881592 128.57985,69.2360071 C128.57985,47.3561681 120.55194,30.1122239 104.455667,18.4400919 C103.333927,17.6266677 105.692537,14.7574459 104.455667,14.0202056 C94.526143,8.10168351 82.8730139,4.69396658 70.4094988,4.69396658 C43.6395233,4.69396658 20.6081292,20.4149014 10.3642488,42.9694268 C6.71987658,50.9934452 9.10372816,59.8823626 9.10372816,69.2360071 C9.10372816,104.881592 35.9378165,126.081593 72.2315028,126.081593 Z" id="Oval-1"></path>
                                <path d="M12.733072,14.5563388 L22.1783045,27.9907553 L38.37799,29.4404301 L54.0837546,20.5658995 L49.1388167,30.8901048 C49.1388167,30.8901048 51.5442454,34.3773461 51.5442454,37.6628935 C51.5442454,37.6628935 67.1842632,37.6628935 67.1842632,37.6628935 C67.1842632,37.6628935 70.3258416,39.6901462 67.6190181,42.8335911 C64.9121946,45.977036 53.7903817,54.4917263 53.7903817,54.4917263 L53.7147465,63.5186733 L43.4570085,63.736411 C43.4570085,63.736411 43.1464458,76.0053579 51.384953,78.268684 C59.6234603,80.5320102 70.4519003,75.0003264 70.4519003,75.0003264 C70.4519003,75.0003264 78.7247872,73.7431777 81.8670861,77.4057551 C85.0093851,81.0683326 84.6575668,82.2234884 80.643171,83.5402285 C76.6287753,84.8569687 67.5789086,92.4743505 60.6468275,92.4743505 C53.7147465,92.4743505 51.5362235,92.1809776 51.5362235,92.1809776 C51.5362235,92.1809776 54.3610837,96.4646805 60.1185271,98.2913852 C65.8759705,100.11809 92.5362338,106.646783 105.827402,83.3316587 C108.537663,77.4057551 108.462028,66.1762193 108.462028,66.1762193 L114.143836,69.9637095 C114.143836,69.9637095 117.855691,55.4830059 114.143836,46.5729497 C114.143836,46.5729497 118.644131,45.9690141 118.644131,45.9690141 C118.644131,45.9690141 110.790676,29.3854226 92.70584,24.9756611 C92.70584,24.9756611 103.173294,22.227582 103.173294,22.227582 C103.173294,22.227582 96.1094242,15.6232535 84.8031072,13.5111978 L104.68256,14.0223084 L125.516621,33.340227 L134.383129,61.3814058 L131.400123,89.7090816 L117.672333,112.379015 L100.013805,126.977755 L77.5616095,133.230265 L42.1104727,128.436598 L10.0044747,99.5233223 L3.60184008,55.7832547 L8.68888053,36.8927896 L12.733072,14.5563388 Z" id="Path-17"></path>
                            </g>
                        </g>
                    </g>
                    <g id="Oval-20-+-img" transform="translate(0.000000, 7.000000)">
                        <circle id="Oval-20" fill="#FFFFFF" sketch:type="MSShapeGroup" cx="69" cy="70" r="69"></circle>
                        <g id="img">
                            <mask id="mask-2" sketch:name="Oval 1" fill="white">
                                <use xlink:href="#path-1"></use>
                            </mask>
                            <use id="Oval-1" fill="#4392C8" sketch:type="MSShapeGroup" xlink:href="#path-1"></use>
                            <path d="M10.4307822,20.8799002 L38.1545223,74.3310695 L41.791888,58.7593854 L51.9659689,45.8188896 L69.5660516,41.1593027 L87.4503394,40.1370815 L153.122324,39.231751 L84.9864653,-8.42071935 L38.0559674,0.126058673 L10.4307822,20.8799002 Z" id="Path-14" fill="#DA4731" sketch:type="MSShapeGroup" mask="url(#mask-2)"></path>
                            <path d="M79.6301177,39.9399715 L90.2580098,50.8520687 L97.0949738,61.7641658 L97.0949738,70.9320693 L91.9838676,85.0300128 L62.0644146,141.398867 L77.9203037,142.269818 L112.348073,130.654085 L136.620098,100.583361 L144.749736,70.3636592 L141.261349,46.6783806 L136.888259,40.4098266 L79.6301177,39.9399715 Z" id="Path-15" fill="#FAD201" sketch:type="MSShapeGroup" mask="url(#mask-2)"></path>
                            <path d="M10.7654107,27.54955 L22.6836852,47.5974629 L39.9812271,73.9139299 L48.6976113,88.4450569 L56.2565478,94.1268651 L66.0111971,96.89328 L79.2542336,96.5907391 L86.8475497,93.5240754 L59.8114023,142.936783 L12.2918666,124.481794 L-7.46954936,81.3376397 L-5.28988031,48.922225 L10.7654107,27.54955 Z" id="Path-16" fill="#57B056" sketch:type="MSShapeGroup" mask="url(#mask-2)"></path>
                        </g>
                    </g>
                </g>
            </g>
        </g>
    </g>
</svg>